<mxfile host="app.diagrams.net" agent="Mozilla/5.0 (Windows NT 10.0; Win64; x64; rv:129.0) Gecko/20100101 Firefox/129.0" version="24.7.8">
  <diagram id="R2lEEEUBdFMjLlhIrx00" name="Page-1">
    <mxGraphModel dx="1434" dy="774" grid="1" gridSize="10" guides="1" tooltips="1" connect="1" arrows="1" fold="1" page="1" pageScale="1" pageWidth="850" pageHeight="1100" math="0" shadow="0" extFonts="Permanent Marker^https://fonts.googleapis.com/css?family=Permanent+Marker">
      <root>
        <mxCell id="0" />
        <mxCell id="1" parent="0" />
        <mxCell id="C-vyLk0tnHw3VtMMgP7b-1" value="" style="edgeStyle=entityRelationEdgeStyle;endArrow=ERzeroToMany;startArrow=ERone;endFill=1;startFill=0;" parent="1" source="C-vyLk0tnHw3VtMMgP7b-24" target="C-vyLk0tnHw3VtMMgP7b-6" edge="1">
          <mxGeometry width="100" height="100" relative="1" as="geometry">
            <mxPoint x="340" y="720" as="sourcePoint" />
            <mxPoint x="440" y="620" as="targetPoint" />
          </mxGeometry>
        </mxCell>
        <mxCell id="C-vyLk0tnHw3VtMMgP7b-12" value="" style="edgeStyle=entityRelationEdgeStyle;endArrow=ERzeroToMany;startArrow=ERone;endFill=1;startFill=0;" parent="1" source="C-vyLk0tnHw3VtMMgP7b-3" target="C-vyLk0tnHw3VtMMgP7b-17" edge="1">
          <mxGeometry width="100" height="100" relative="1" as="geometry">
            <mxPoint x="400" y="180" as="sourcePoint" />
            <mxPoint x="460" y="205" as="targetPoint" />
          </mxGeometry>
        </mxCell>
        <mxCell id="C-vyLk0tnHw3VtMMgP7b-2" value="Orders" style="shape=table;startSize=30;container=1;collapsible=1;childLayout=tableLayout;fixedRows=1;rowLines=0;fontStyle=1;align=center;resizeLast=1;" parent="1" vertex="1">
          <mxGeometry x="450" y="120" width="250" height="130" as="geometry" />
        </mxCell>
        <mxCell id="C-vyLk0tnHw3VtMMgP7b-3" value="" style="shape=partialRectangle;collapsible=0;dropTarget=0;pointerEvents=0;fillColor=none;points=[[0,0.5],[1,0.5]];portConstraint=eastwest;top=0;left=0;right=0;bottom=1;" parent="C-vyLk0tnHw3VtMMgP7b-2" vertex="1">
          <mxGeometry y="30" width="250" height="30" as="geometry" />
        </mxCell>
        <mxCell id="C-vyLk0tnHw3VtMMgP7b-4" value="PK" style="shape=partialRectangle;overflow=hidden;connectable=0;fillColor=none;top=0;left=0;bottom=0;right=0;fontStyle=1;" parent="C-vyLk0tnHw3VtMMgP7b-3" vertex="1">
          <mxGeometry width="30" height="30" as="geometry" />
        </mxCell>
        <mxCell id="C-vyLk0tnHw3VtMMgP7b-5" value="order_id int NOT NULL " style="shape=partialRectangle;overflow=hidden;connectable=0;fillColor=none;top=0;left=0;bottom=0;right=0;align=left;spacingLeft=6;fontStyle=5;" parent="C-vyLk0tnHw3VtMMgP7b-3" vertex="1">
          <mxGeometry x="30" width="220" height="30" as="geometry" />
        </mxCell>
        <mxCell id="C-vyLk0tnHw3VtMMgP7b-6" value="" style="shape=partialRectangle;collapsible=0;dropTarget=0;pointerEvents=0;fillColor=none;points=[[0,0.5],[1,0.5]];portConstraint=eastwest;top=0;left=0;right=0;bottom=0;" parent="C-vyLk0tnHw3VtMMgP7b-2" vertex="1">
          <mxGeometry y="60" width="250" height="30" as="geometry" />
        </mxCell>
        <mxCell id="C-vyLk0tnHw3VtMMgP7b-7" value="FK1" style="shape=partialRectangle;overflow=hidden;connectable=0;fillColor=none;top=0;left=0;bottom=0;right=0;" parent="C-vyLk0tnHw3VtMMgP7b-6" vertex="1">
          <mxGeometry width="30" height="30" as="geometry" />
        </mxCell>
        <mxCell id="C-vyLk0tnHw3VtMMgP7b-8" value="customer_id int NOT NULL" style="shape=partialRectangle;overflow=hidden;connectable=0;fillColor=none;top=0;left=0;bottom=0;right=0;align=left;spacingLeft=6;" parent="C-vyLk0tnHw3VtMMgP7b-6" vertex="1">
          <mxGeometry x="30" width="220" height="30" as="geometry" />
        </mxCell>
        <mxCell id="C-vyLk0tnHw3VtMMgP7b-9" value="" style="shape=partialRectangle;collapsible=0;dropTarget=0;pointerEvents=0;fillColor=none;points=[[0,0.5],[1,0.5]];portConstraint=eastwest;top=0;left=0;right=0;bottom=0;" parent="C-vyLk0tnHw3VtMMgP7b-2" vertex="1">
          <mxGeometry y="90" width="250" height="30" as="geometry" />
        </mxCell>
        <mxCell id="C-vyLk0tnHw3VtMMgP7b-10" value="" style="shape=partialRectangle;overflow=hidden;connectable=0;fillColor=none;top=0;left=0;bottom=0;right=0;" parent="C-vyLk0tnHw3VtMMgP7b-9" vertex="1">
          <mxGeometry width="30" height="30" as="geometry" />
        </mxCell>
        <mxCell id="C-vyLk0tnHw3VtMMgP7b-11" value="order_date date NOT NULL" style="shape=partialRectangle;overflow=hidden;connectable=0;fillColor=none;top=0;left=0;bottom=0;right=0;align=left;spacingLeft=6;" parent="C-vyLk0tnHw3VtMMgP7b-9" vertex="1">
          <mxGeometry x="30" width="220" height="30" as="geometry" />
        </mxCell>
        <mxCell id="C-vyLk0tnHw3VtMMgP7b-13" value="Shipments" style="shape=table;startSize=30;container=1;collapsible=1;childLayout=tableLayout;fixedRows=1;rowLines=0;fontStyle=1;align=center;resizeLast=1;" parent="1" vertex="1">
          <mxGeometry x="450" y="280" width="250" height="130" as="geometry" />
        </mxCell>
        <mxCell id="C-vyLk0tnHw3VtMMgP7b-14" value="" style="shape=partialRectangle;collapsible=0;dropTarget=0;pointerEvents=0;fillColor=none;points=[[0,0.5],[1,0.5]];portConstraint=eastwest;top=0;left=0;right=0;bottom=1;" parent="C-vyLk0tnHw3VtMMgP7b-13" vertex="1">
          <mxGeometry y="30" width="250" height="30" as="geometry" />
        </mxCell>
        <mxCell id="C-vyLk0tnHw3VtMMgP7b-15" value="PK" style="shape=partialRectangle;overflow=hidden;connectable=0;fillColor=none;top=0;left=0;bottom=0;right=0;fontStyle=1;" parent="C-vyLk0tnHw3VtMMgP7b-14" vertex="1">
          <mxGeometry width="30" height="30" as="geometry" />
        </mxCell>
        <mxCell id="C-vyLk0tnHw3VtMMgP7b-16" value="shipment_id int NOT NULL " style="shape=partialRectangle;overflow=hidden;connectable=0;fillColor=none;top=0;left=0;bottom=0;right=0;align=left;spacingLeft=6;fontStyle=5;" parent="C-vyLk0tnHw3VtMMgP7b-14" vertex="1">
          <mxGeometry x="30" width="220" height="30" as="geometry" />
        </mxCell>
        <mxCell id="C-vyLk0tnHw3VtMMgP7b-17" value="" style="shape=partialRectangle;collapsible=0;dropTarget=0;pointerEvents=0;fillColor=none;points=[[0,0.5],[1,0.5]];portConstraint=eastwest;top=0;left=0;right=0;bottom=0;" parent="C-vyLk0tnHw3VtMMgP7b-13" vertex="1">
          <mxGeometry y="60" width="250" height="30" as="geometry" />
        </mxCell>
        <mxCell id="C-vyLk0tnHw3VtMMgP7b-18" value="FK1" style="shape=partialRectangle;overflow=hidden;connectable=0;fillColor=none;top=0;left=0;bottom=0;right=0;" parent="C-vyLk0tnHw3VtMMgP7b-17" vertex="1">
          <mxGeometry width="30" height="30" as="geometry" />
        </mxCell>
        <mxCell id="C-vyLk0tnHw3VtMMgP7b-19" value="order_id int NOT NULL" style="shape=partialRectangle;overflow=hidden;connectable=0;fillColor=none;top=0;left=0;bottom=0;right=0;align=left;spacingLeft=6;" parent="C-vyLk0tnHw3VtMMgP7b-17" vertex="1">
          <mxGeometry x="30" width="220" height="30" as="geometry" />
        </mxCell>
        <mxCell id="C-vyLk0tnHw3VtMMgP7b-20" value="" style="shape=partialRectangle;collapsible=0;dropTarget=0;pointerEvents=0;fillColor=none;points=[[0,0.5],[1,0.5]];portConstraint=eastwest;top=0;left=0;right=0;bottom=0;" parent="C-vyLk0tnHw3VtMMgP7b-13" vertex="1">
          <mxGeometry y="90" width="250" height="30" as="geometry" />
        </mxCell>
        <mxCell id="C-vyLk0tnHw3VtMMgP7b-21" value="" style="shape=partialRectangle;overflow=hidden;connectable=0;fillColor=none;top=0;left=0;bottom=0;right=0;" parent="C-vyLk0tnHw3VtMMgP7b-20" vertex="1">
          <mxGeometry width="30" height="30" as="geometry" />
        </mxCell>
        <mxCell id="C-vyLk0tnHw3VtMMgP7b-22" value="shipment_date date NOT NULL" style="shape=partialRectangle;overflow=hidden;connectable=0;fillColor=none;top=0;left=0;bottom=0;right=0;align=left;spacingLeft=6;" parent="C-vyLk0tnHw3VtMMgP7b-20" vertex="1">
          <mxGeometry x="30" width="220" height="30" as="geometry" />
        </mxCell>
        <mxCell id="C-vyLk0tnHw3VtMMgP7b-23" value="Customers" style="shape=table;startSize=30;container=1;collapsible=1;childLayout=tableLayout;fixedRows=1;rowLines=0;fontStyle=1;align=center;resizeLast=1;" parent="1" vertex="1">
          <mxGeometry x="120" y="120" width="250" height="100" as="geometry" />
        </mxCell>
        <mxCell id="C-vyLk0tnHw3VtMMgP7b-24" value="" style="shape=partialRectangle;collapsible=0;dropTarget=0;pointerEvents=0;fillColor=none;points=[[0,0.5],[1,0.5]];portConstraint=eastwest;top=0;left=0;right=0;bottom=1;" parent="C-vyLk0tnHw3VtMMgP7b-23" vertex="1">
          <mxGeometry y="30" width="250" height="30" as="geometry" />
        </mxCell>
        <mxCell id="C-vyLk0tnHw3VtMMgP7b-25" value="PK" style="shape=partialRectangle;overflow=hidden;connectable=0;fillColor=none;top=0;left=0;bottom=0;right=0;fontStyle=1;" parent="C-vyLk0tnHw3VtMMgP7b-24" vertex="1">
          <mxGeometry width="30" height="30" as="geometry" />
        </mxCell>
        <mxCell id="C-vyLk0tnHw3VtMMgP7b-26" value="customer_id int NOT NULL " style="shape=partialRectangle;overflow=hidden;connectable=0;fillColor=none;top=0;left=0;bottom=0;right=0;align=left;spacingLeft=6;fontStyle=5;" parent="C-vyLk0tnHw3VtMMgP7b-24" vertex="1">
          <mxGeometry x="30" width="220" height="30" as="geometry" />
        </mxCell>
        <mxCell id="C-vyLk0tnHw3VtMMgP7b-27" value="" style="shape=partialRectangle;collapsible=0;dropTarget=0;pointerEvents=0;fillColor=none;points=[[0,0.5],[1,0.5]];portConstraint=eastwest;top=0;left=0;right=0;bottom=0;" parent="C-vyLk0tnHw3VtMMgP7b-23" vertex="1">
          <mxGeometry y="60" width="250" height="30" as="geometry" />
        </mxCell>
        <mxCell id="C-vyLk0tnHw3VtMMgP7b-28" value="" style="shape=partialRectangle;overflow=hidden;connectable=0;fillColor=none;top=0;left=0;bottom=0;right=0;" parent="C-vyLk0tnHw3VtMMgP7b-27" vertex="1">
          <mxGeometry width="30" height="30" as="geometry" />
        </mxCell>
        <mxCell id="C-vyLk0tnHw3VtMMgP7b-29" value="customer_name char(50) NOT NULL" style="shape=partialRectangle;overflow=hidden;connectable=0;fillColor=none;top=0;left=0;bottom=0;right=0;align=left;spacingLeft=6;" parent="C-vyLk0tnHw3VtMMgP7b-27" vertex="1">
          <mxGeometry x="30" width="220" height="30" as="geometry" />
        </mxCell>
        <mxCell id="Nk_9127AkEUvD1Vco7sO-1" value="" style="shape=image;verticalLabelPosition=bottom;labelBackgroundColor=default;verticalAlign=top;aspect=fixed;imageAspect=0;image=data:image/png,iVBORw0KGgoAAAANSUhEUgAAAj4AAAA4CAYAAAD99PKYAAAgAElEQVR4Xu29eUDP2f4//phBGpNh+o19qVuMJTJS1qRPsoxMIUKUK0XJHoa60ujKEsa+vuVSKFoU9SPLkLxDyZQYhrJkS64Ywhsz93tey3vfXuWdZZz3/eeOXq/zOufxXM7jPJ/Pc85n/yM/0B9FgCJAEaAIUAQoAhSBTwCBzyjx+QSkTIdIEaAIUAQoAhQBigCLACU+VBEoAhQBigBFgCJAEfhkEKDE55MRNR0oRYAiQBGgCFAEKAKU+FAdoAhQBCgCFAGKAEXgk0GAEp9PRtR0oBQBigBFgCJAEaAIUOJDdYAiQBGgCFAEKAIUgU8GAUp8PhlR04FSBCgCFAGKAEWAIkCJD9UBigBFgCJAEaAIUAQ+GQQo8flkRE0HShGgCFAEKAIUAYqAYOIjKbuDP4yaoN6XbwNaDkTjN+OsahOdx2Ozr+3bNCzgXem3n6GwzAHr9/qjlYC3hDxStNsLrlFdEHd4EqyEvGDAZ4pTFyA8+TZQcgEmgVlY0deAjWtp6n18s1KjKk7FgvBk3EYJLpgEIutdgKPQ0RwR0Wui7M8Ky+Cwfi/8DaVwlQJD4aW3wkWCsoJcXDaxRjfzt3IGbzuKj/59g+iHVJbPClHmsB57tSqZBLezc/G4hQ3afV2zirErx+WsfBhbd4NmFSnCbi9XRHWJw+FJhveYH41/YqVQjNQF4eBcuAkCs1agci78Xcq3itXnHTSvm/iUl+JW8TWcSVmJeaF70Dnuf9jh9va9khyeiEZ9NwAB6bi3vg+q2gzlPS7Btv4N4XN/CQp+nW0QkiLJXwr7zstguuoIUiZYv8OxyEclyZyNlj0j4bjPMPIRIuH38U0h/VJ7RpKJ2S17ItJxH/73lspbli9GcbPusP5aeE9KtvVHQ5/7WFLwK2Yb3scL74jqk5XF5cluDKnriaSa45D6UoQBle8BfZMgYBD9kBzGxEZ9IZ5TgF+1KVnOfLSwW4BC2xW4nD1dvui7LoYY3dH9H4YTx5PdQ1DXMwk1x6XipUhVQyTIX2qPzstMsepICiZYV433/2j8Ewu7BJmzW6JnpCP2/W8H9E6xmmSmTb6GE+vfqiXdxIcAnHrfFO3/FwfXHmGwNtTEenEpvmv3I8hsoN1QqwjmZO/PMCjfQMSnJBne3ZbCYkciwuwbVFGPBTTL42kw+Qj4JN7HN4X0S+2Zi1j6XTv8aP32xCfN1w4F07MrRmCSvfHZoPwPj/igsrhIcDVjP37/oiuc7Zq+F6JfKTX4UF8yiH5wstzlqcufliA39STuNeoJFxu5r7rysx0WWmQbZEErg1hyFRn784AOP8ChpTKxKSHj7bbUAjsSw1ClLvOj8U8caheXfod2P1oLIj6aZaZZvh+q2r/vfglLdRlaif42xCcX2X9YwU7FuN+5UA0tHyEDeB/fFNKvqiI+7Kp6FsxPVjByY5CJrVID1/NSZYlPVfTlE27TIPohhPhowrgI6+wtcWbWu4sUl+Rm4w8rO1S5y/xo/FNFic+7l9nf0To/cOLD5C13IWrPDaDW56jdbgCGudqhKb+IkNzOxt7YA3hm0gi3Hv+Fpi+M0PknX+iqFpJGfM7t64lL8fuR97wpvvcYA6fWpF6hLB+Hjv6Op8+KIH7jhBWk7qgs/xCO/v4UDy6kw+iHzZCVIpVfxoF1MRC/rIbXMIeHjyfs+I6VXz6AbYlXUN30DUpe1MYXf5lhZFBbFMefw122bQfM6FCMXbsPo7yFG/oPcFSrl2DaWBcjxstqrwFzD/h4ysfNhEZvZ5PU2tFTeGzSEX3aX4WfY4hKRI7k2Q+sQ4z4JbgmfODJr9Arg9vbflOT8UixfVYkxhunFQTbMuQfOorfnz7AhXQj/LCZyFIqkwcXcMlsDCabXcLOFDHuV+8IN09XGebajVM6wcfj0eyaOt6V42UEI3zjPAhjnFqDqWIpv3EU6yaMxI/pxhi5egWGNAJqf9sb/ficF4Pnrqg9uIEa+NO4O0YHDgSjTuxP4MSmWybaZal13JLbyN4Vg6TiV0Sv/0RLTz+Z/HlXqzESJtM7I8DoG2cMGuMkHwuk8nmGIvEbOK2Q2hpnpzFJxXhFnvmzpSf8ZPp6HWKZ3jsh3Pk1klTtTp9nZccSBcYN1PjTGN1HB2IgAVhum5dgNmYyzC7tRIr4Pqp3dIOngp/Q2DyJZsefuwti2ESvfBHq0gzXxfE4d5cZ2y1YTQ+FiwnvDwToHqsDMUng4G4JTz+5P9A5PKl+nNuHnpfisT/vOZp+7yHTPfZdgbLc5XkOsbY5OHDkHqp92xPfD5PKTsGuLpnBN9QF9csKkDxrKLy3XoHt7L2YZke+07gThvI5L/3j4WS+ZddVVPtK0Ucpy5vxodxPhy/nZcH5gXA4v05CPIkYPW/6PTyU9E+foij8XQPxYXR7c1w2nv71HOVf9sJYRTvV2TRnf9tOlOPLGn/CuPtoBA4kvkGIDjWTj12zfQgnPhKtMqsr95u8fNnPMr5L4zxSEZusmO8xtE+vvMx068oHTHxKcHgKUc7HC3F6izshO8Rw9oyBTaQNjpCaFuvnsRjSKgMBxevRhyFCJQkY0SYZIx/pzpGyxOdAE7hMicXWMHvUZetj0jGJqcFoUYY719MQRBQ7biCXGmGKuq+nBRFnG4eB0lQfk+JqPxavNvyGWPcGkJwOgZVzDoIJSfIpC0OLqfWQnhkIC8bc8yPQxbs6dv4aiPq3TiPSyRmRt5tg3I5MrPIwB3Ij4Nh9JdrEXSDhZi4EzYSD2499hQ2/xcK9gQSnQ6zgnBNMlNsHFpJ8bHJ1xrwGG5DL4EJKdxP8bDA0uhReslRkCZlv22Psqw34LdYdDSSnEWLljJxg4sgHn604bm/7TR8GCfWfOrakcPbOdaQFEfIQN5AL+0rkMhFbusBl6s9YObolHjO1M0H1sa+QPKOz5oYnPnfbw39FguZ32fENgKhXCo4H2xCyU47cn3qgf+FPuEB0wKT0Fv6bGgSzsb8h5EQaxhOxVavdAE1IkShX47ULg8+eQTCpVyiJcYPlnBZIKVwOJ0YvhRCfMl26rEOWWnBlJpljU5phdq1kpC7uhgasvo5CYegZnJIVk6pGfEjtxSZXDBD1QsrxYNgQ4lae+xN69C/ETxcIxqxqMvIpwdnl9uj/s7weQXJsCprNroXk1MXo1oDr76jCUJw5xRT7l6P0Vh7Wu/ZAGKkl8R+0BGGqdqer9onIZql9Z+wiensmmNTQlcTAzXIOWqQUIqLjQ942xbB0ccHUn1didMvHbB1fUP19KCSy06oaTP1i3no2hS9NuZcTOeetdwX3T8r+QKfuSY5hSrPZqJWcisXdGnD2O6oQoWdOQW/tLqsfB9DEZQpit5L0T12uJi19kjRtJVyWoQ9dsDwlDoFEeOWMX3FKhWfGMUy3JmTszkWIhnfC7Gdcmr8F8WslFzZgQK+FaLPtJpY7EfF+8f+hObN7Re94+DqdXQMhPjWf6EoJ9v+zA4b9sRL3En/Am1uHMPc7d2zlfSjxaLp9+RsFWXT3x6AlYaR0oC5X95I+qXL1mKrEp2gTnBwPYkx6LMa0Bltn1H21LfYwGOj0H1L7W4v87R7E3+Yi0t4Rm1x+wbVZzfXrENFt3fZREeKjTWbV1eTLmJT2eWQ4aguyyYr7HoP69ErLTD9B/mCJD6ssvTMwU6kolEzgzbshzicH1zpvgPHoZ9iRvx0ebKRFgrTJc1F9je6qeI74BCD9Hk+YJIQwGQ+FkYw0aEgBKBlRGXHslhh0PABZtxaiK4txPiLadcBGtywc/mYyWm8fiHOsQ2D+dhFrJ59EnzXcLjL2+6/i8ZIQEmn2+1xYC9gutsbue4kYATJJWQ7C8YAs3FrItQ5Cntp12Ai3rFvEkZFccKgF96zUYFWMvIw4U8tBxxFAnpc30Q4dNroha2MJHCuIG5t/fptvynDSoJAaVmbq+W5eJiZrUcgTSg6TPfDWWzSs/92iTU5oO7Up4p6QCV4qlDIywZr6otrue0hkgNZIYPi2zaLxKHk0N8ny+vQi+hGSR2t7TwWHNF+tumynS5ZacS1GVL+WGHc+ECceLIeDVO+UattU9JxxMm2nomncE0LAZSAgxs0UvtV2kwlthIxEqMqnOKofWo47j8ATD7Cc+5haXZN+u9PsrLhvmSH6UTIYOBk7TxhhjKEveMx5/TFZW4jMQI5g50cQXd/jLWDCJLb22SDkK9YaqvVdv/6gOAr9Wo7D+cATeMABoN6uNl/ME5+A9HtYz67g+PEZSWvShMtyh0ceCgg55H4SHJ7YCH3TpyDnWhg6adIBbekgfeM5RxZ3tothLbUNnMMS695YZLkKF5LGoJlK/ZheXx7G9o7F7IDChhdJwggYDzUSVPeiBq/q2DKCUL/XOnTcehWHfEg8RGAqrCx2CBqNzMecnGtgu1mWAK9/jMOpySkoCtciaxUdEmIfgmt8dPRbqX61TPc8wswL+mxS5zzyLnx6JWWmzdQU//3DIz4kfHjoaRvUEFmi9xp+1S/rcRnriL3OByPr6nBkkJXgjznVUc+qC5zdR2O6gPCyenGzqpPSR3zS4Gvsgq0dp2MXiUzU4PuWvXIYlloQZxUJsroehOg/6qBJx17wGOyH8QohVfb7UCm0ZSY+l63ox0yWprPY/99x+i4SeZK1jpXDSBH1vsvo+O/WmPFapThbxRjSfI3hsrUjpu8ikSp5BzGMFBXuezkTVyqE2xX8bPeW39S1U6EixEexQFmg42KIp1pxs9K7xdjk1Bz+j1QL3jmSHdGRn2A1EZ8rP8Ou9QwUD12GtcPNeE0gRGnGFFySrtiFRHz4qIYmXdYpS307QEi0rDBXjPNFxTiwJADbP1ccozIuxYT8Nfd/pFaEfTqkObpFdFQgHtoKMUk0qDAX4vNFKD6wBAHbP1dqS7/daXJXvO4VD8WytcMhQzhxBqZc4iMBgvRHK+sQTnwE6J6krBC54vMoKj6AJQHb8bmQzRvaSKLqBgwBslQtbuZkeg3B/AJITQZ6bEjbeLhJmo+KaYzWKevWsSmmun05O4kKIaFCpjT+GS1jKy89jzMnCnEzbwN+/Pcx9NezYYfFLNpLB/kS2m/d9mFw4sPPKZrnEa6mS59NVtr3CLJJfX5ZLuuKykyIlnxwxKeMpAoCvtiDkcnGGhSOXw3F8YpInEHBqWSkHUjHgT2JOPmwOzZeOoYJmjMrLB76hK1/ouQUPdpLxy6h8hvIOp6Gg8mHkLQrBRdqTcbR4tVs6kMj8SGpsubdItBgxWVkWywkq+VohbSVohj5ydhUN/HRa6wVws1A39SmjQY2EvXP6DMw/u9QJT5cFC+kOv/vShMUcWKlz1HrwRZ00bc7UQjxYRfomnW5YZg+x6sJWLLzKsYX/SZlw2nzPpJSbY0jarsZlXHRNpmx0ZOQ6kokRtVJS67GwLffJGQ7bca+VR5ofURLxEdpMhcSFdEmG4UxC9KfKiY+ZBdTjG8/TMp2wuZ9q+DR+kgFIz7Ku/6UfZRwWaoSHy5isg/jUl+C2VWuj/iUl5YC9erhSz3j4ciwqY6disq6pdkfqfjyqiY+JZkIGz4QoprB2Ll1Kno9WcXuLNa9E5ZfaKe8HfERYh+VJT4ymanObazf0TaPcPagby7UO49UtU+vlMyE0B7gAyM+THi2GamveYDg6/awnGSEjbcIkZFWavEppZD6G3Fr6in0ODtRng4iq+aILh2QNIaQh+naT4rTJ2yNxIek3Ux7r+FrfLRFCEjBmBiokzkYwY1/4dIczI+tPRoFkxgF56MS8WHInqnXRcxnwqn1ScqhuT8eqa4W2bMb2uBWUCOMzAlSSLORb6g4f22r9+tMB0s3oleFcCtDLKnmfatvdu8OrceEaJi41FeI+siLLmXX9y6fEogdjaOPCDmVNsWnrNInH8Wj1eRflQgM0bURB+EWa4tNpr2xmdQyPCFLKNnGXVKQLS5uhu5M8bMQ4kOeaa5FJom1AjRGYlhZasO1aB3sLScBCukfmd7vt0JWvjV8Xf5QioRxZ2vFYvTRR2CGy/34ySmdEHcFbJSdNLfLZBIU0pCyMe+HFTnIztrXBblqxEsI8QGpVSLRgs0k8quYhmSKrMXFaNbdGl8bmPio244+/QGK1jG+ioE7E1y2TT62/VZZyLf2Bamd1vzTF/GpgCxViQ9LWhd8K0uL6yY+jKz9UD12B9rrGY/4RhrGTDqO8Uq6AlIcLtVJZcw4fHT48mMTSHpMaORE2MSm7BOlNj5CXuKgoDdTSkWAr+ZNMWwZwk/NVeYhBf3T0G9lHRJmH38I3c6upO9ymTFn/yjJt1jXPMKd26RvLtQ5j1S5T6+8zIRoSIWIT+v4l6SYV/FchgzMadoXK7+ah1OXQtg8sqAfH+EwVZrcSfFygh9shuZzdT2NSUqplQtypuVxRY2MG2YKhTsnwfMsKQC87ofPxprIFZk4wxg3S4gnSXPl2vyMyjk+/AR3WdYXnuXXkUZ0uOLibhGFsigMl7NOg1/WRVJDw+FRkuCNgIdhCH8yBO1S/OS1KGAiJjPR+DjnFFllE5NU3UUS3uUGxRK2lSSUzhTSklJptjC1d5qf/BlSHJjgHYCHYYn45zOmmHYz+h5X+DYhTmZeKfCQhm3Z4sTeSPPLwkWSzGV7SAiYd8BDhI05BcsK4sYV8L7FNxMnsIXeGn9sLY0X6sj6zhRikxRToeIqS8Pkw9b4hMBG79lSAt69SFJWncJhuZMrVufgGoE2AUbYJi3sZdNa4ejGOPsehMx+/xCRxGG/ZuuDakN0k9Sg8AXA+RGuEHVNIQSCDfHpP8eHeUabTBxOaZelNlx5ot5XZq88Bm8WIk9UjnkZnkieDZUU4EWS0uyEcMudXEE8rzMj2gTAaJu88J75Z2XiQ3SNkL81feV1a9zf32Bhngjl8zLgST52TZX4qNmdFv3ga49qi26SxQQnG8YPuIq6IoUwtJoaiA8XpbIRUBvCRTNTZYXEJcSHmMErpbVCNEO//nBEvS/iX5LNCIyx8X16szAPovJ5yPBM1n72k5p+8GTzMh9prIgsG0bh/sGxnOzYDQ2OSB9/lhQJc/5TfaLj0vZFq27h2IQyRNiL0DVzNYhAdY9naDgwvjMWq+gK619YnVTBrEyPL2cPMVQnPlzE6rKCLPj5ptEinCOHMOo8D1RTOvsB0f+CYDBVUFz9SjT6xt/HwB2zUDtZy6YYdmMAqQNTmYdk+sf6d106JMw+iDEKPMdHs8yYtYpqpFDXPMJkRdT0QdUmdc0jVe7T+QBDZWQmgIToJj4ZZGdAaDrZ3vEQN0qfwahuEzSuWwMt/KIgGsVMZRcRNXg4VmAG4pJ8BJyEnIEIx1Ck8+3BpB7Mv+H3/Ur/Db2x/PxWuDMBExLqWuo/BSl1RsCz7TXEH3wB9wXLEMicfEUU12TpU7g2+BaOZOvsG3E0MhvOws+z7TnDV/sx356LPXfv4PErE9Qz74ppfhbYsn4P7t55DDBj81hEdvU4EMe6CSM8/4OGE4PQ/l48rv31FdIjduCBVSe4zo1mx16SuRT+/kn4y30wejwtwM1m4xE63R4Pl9qhX4Y5nL+xhePABriTmIT77suwzL2l3PkUeWG6RW00c7JCkUiE264/Y83UXrJt+swuiMyl/vBP+gvug3vgacFNNBsfiun8iV8lmeswc85ucjrqNLR/mIKch68gXrOP7V9bT24MHHb+SPrLHYN7PEXBzWYYHzod9qcrihsH5Ft9U+fZjsxuIiLf/zTExKD2uBd/DX99lY6IHQ9g1ckVcyP+D7/MX4nTN0rxzKgumjT2wES/ImxZeZrVSZN65ug6TaqPKkIv2glfH2HvSq4mYNrYhbjexReuNQ4h/tcWCFwTAXfZgSNEJmHDMSSxAQa3eoL6AbsR7sQoKUlFJEyD9/zfYe3dD00KCvDYbR4WEXmfiXDE3D13cefxK7afnsuPgxGN2k+fLmuTpVZcOf3xEb2GZ/BI1M4T4+tBTsgOnI8r5mTH3OReEC9SwMVhFqJFo8iOwatImDYWC693ga9rDRyK/xUtAtcggtddab9Vw/KsLfiI8NozGCNr50H89SA4ZQdi/hVzshtyGMx3bBZkd9r8FSsb7/n43dob/ZoUoOCxG+Ytcke1eF/48HrA+iaPifAr2oKVp2+g9Blv41EisK5Ky6/kcBAGTS9Cv5luqEMiFs/r3sK/IjNhZmuL8UF+KNooQH+c7xJb84HotSeCR9ZGnvhrDHLKRuD8KzAnO0SXbNbsGzNU9KPrND9YbFnPYQVO1xcdH4fPdclyyWb4WF3BxmFrYTLOAln7X8HO7jMcF6XgiykiLCNpzi+h4Ptk7QaTonc+jRb6AH0cPsMjh+XY60PoBKtvesZDjvPYM3MsFvzeHRPda+HIkdcI2LAYfcoVbI7x712nIYrRLV2+nJln5nJ++BX/jp/FFqxnbYdxzY3hsYixHbJRpI8LFmfXw5RT2g8SLdqprBcOs6KxrvN5okNTkW0VjDk97uJgUQ94ma6AX8KfaPd//8LWcCetOwAlt09g1eRAJJl4w8vmJo5kWyNs2wRID53WqUPE5sd9rss+JqOXeBGvs0ZkrA6YFa1LZzXJ7L/yuU1JvtrmkSuC50Kt88g78OlvIzN93EdYxEdfK/TvghHQWOMj+G36IEXg/SMguB7h/XeV9uBviMDpkCHI8k6EjoqGv+Go6ZAMiQAlPoZEU0BblPgIAIk+8sEhUJY2GT0n/oLBOwowLFPodvEPbhi0Qx87Akz6ZeRvmJbInZNGfxSByiBAiU9lUKvUO9dxZOm/MWdxFDn1ohN85izGv2Y7ay/6rdQ36EsUgapBQHIsCJYDsjH9+CTkDQ1F3W0nsLrPe7yfrmqGSVv9oBEg9ZZhY5AxZDtmV9Hlph/08GnnDIYAJT4Gg5I2RBH4myPAnHb83xfkgN/mYA74pT+KAEWAIvAxIkCJz8coNdpnigBFgCJAEaAIUAQqhQAlPpWCjb5EEaAIUAQoAhQBisDHiAAlPh+j1GifKQIUAYoARYAiQBGoFAKU+FQKNvoSRYAiQBGgCFAEKAIfIwIfGfEpRuqCcCTfJmdsXTBBYJbum9gNJxCym2CBI3xL5+HkmgFaD7rS+D1y0FdWvjGsu5mTg8Q+pV85LpPrCoytu8H8PQy8OHUBwjlFgUlgFlb0rQz2BtK3HBHGbz4roC/vEDPJbWTnPkYLm3b4WvEwdilM5OTfBY6+KJ13EmsG8NevVAZCHe+UX96DmRN3AJ3IpcSPivHSJgBTaq3AhMdLcYo/pKX8Mrnywdga3QyoRDmi8WDE8aywDA7r98Jf+w03bzfi4lQsCE/GbXIg6QWTQGQJUULpO88KUeawHns1ds5Aevl2o3urtyW3s5H7uAVs2n0tv+rlrVqkL1MEhCPwkREfZmAScgR7S/SMdBRwJL1wIHQ9WUJO1m0//CxG7K/oFt4n2D2kLjyTasouCjRMjz6sVjTdG/Vk9xBysnQSao5LxUvmhsT38JNkzkbLnpFw1Hutha7OGUjf+DuXLHT0RRtmZfliFDfrDubqL0P9cua3gN2CQtgyF+OqnQRXQg5Gb4/hZ0dg/4nVqJJd68w1IV2OY2qh9KoPwguPBKJHn/UwkV4f82Q3htT1RFLNcUh9KYIhtahkW3809Lmv46JNAyEtIdfrtOyJSEcdlxqrfkpyGBMb9YV4TgF+na3tYgYD6aWBhlmxZnIwv4UdFhTaYsVlckSClHgq3nFXsQbp0xSBCiHwERIf1buCKjTeCj/M3FPlNCgXAYe2Y7Ts+gLhzUiuZmB/HtDhBwdU4nXhH3pvT14hdzwthEW2yl035PqDDG7gcHhfA9dwj1NlYDLMScXcXUSErYNcyab5pwWzNF87FEzXfkR/ZcaEklyknryHRj1dYKN0HA+5QmSpEwblBuDQ9tFVprPs/VbkdvuX5F4wecCJu5hwlvlJfsInx/Nn7EceOuAHB+7KF4P9hNyhZpCPabjrS2+73Duql46qvmYYvdTbmSp5oCQ3FSfvNUJPFxv5FUNpvrArmI5srWSvSrpCG/0EEaDER4/QJVezcfErO5XJ4RPUFG1DZiMZZzDrf1ou+XufUH1sxEcTVuzqfxbMT5KLe3XeymgooAnZyL6Ir+wUJiRDNa3QDnuCeZHCje7835iLKbsUztMR6TBQZyjxMRCQhmpGlfQaql3aDkVAHYF3S3xIKPPQ0d/xlO9H7W97ox+5Kjf/0FH8zv9j404/oPnDXYhJKsYrcuP6ny094UcuIW2qsNzTtNJhcsa7ovbgBmrh89rtMGCYK+zYl65DHH8Od58VQfzGATM6XENU/F3YjA3EwNaaik/45/EAFy6ZwTfUBc2uixF/7i6eFYlxy2o6Ql2a4bo4HufuPkOR+A2cwp3xOimeRHaeo+n3HhjjxFwMyHxa/t4bpxXwtZUKgNRyHFiHbSfK8WWNP2FMLjIMHMi/Qx4pv3wA62LEeGkEGH3jjEFjnKCxq3xzin1xmNEBxbt243B5C7j1HwBH1doiprZjVxT23ABqfV4b7QYMg6tdU3Y1rdrOtah43LUZq9Q3uQpJUFaQjFlDvbH1ii1m750GO/LHxp2Govs/FDF3wgoy8LL8QzhKhPzgwiWYjfLAF0d2I/bal+g+cADceqjWmXD4xIhfwoj87xvnQXJMdVqxBLezjyDl6Ck8NumIPu2vws8xBNaKURaF8df405hcoqlND+Qfkupb/KPZqLkzBeL71dHRzVOGG/skqeU6sDkO2U//wvPyL9FLTb/4iE98MSb/tQ+Hzz9D3R694eos1W11zMpvHMW6CSPxY7oxRq5egSGNAM5muMtRb2frthPSKc16JrXDBxdwycyX1Wfupx13JfmNmQyzSzuRIr6P6h3d4OmqYJ8Mvkd+xxfde6CdxuIh7kscppfRatwOxEe6yZ+VlKH0eS3UI+8q2dgKX9gq2SrLV8EAABP7SURBVFM4nF8nIZ5EFZ83/R4eqjZC5HFs7/+PY3lP0fiHIXB4dRy74w+joPlU/CeUXEipgfjIfUgN/GlMLnMNHKjT7rSpItPOkZSjOPXYBB37tMdVP0eEWCunurT7KxYdPuJzDrG2OThw5B6qfdsT3w9T9gO6/aDwMejui+ZRMj5qW+IVVDd9g5IXtfHFX2YYGdQWxYyv1eM7lXTJNxQupjdwdN0EjPwxHcYjV2MFp+joTSYHLrsr18tqrwFzDx948j5Lpzugf6QIaEHg3RIf4tTuXE9DEJno4zqvw7Xd42BJNLusYA1+sI1Dr9RoTJSsR8fQWkhOXYxuDbhag1GFoThzapLs9ne126EPTyETzWMsPL0F7oTsSG7vwRibSNgcIfl16zcovXUakU7OiPyjFSav3YSG5FbkkBorcDl7OtTrGsvJ83lY79oDYViCgl9nw4o5sTZvPVx7hIEUBbCr0fLSW8hb7wrmn7r7D8KSsDDY1+Xy+emT+Nw8896hufjOfSsGyiZfbkxjX61F/nYPNEUuIu0dscnlF1wLa0duKnfFAFEvpBwPhg1hT+W5P6FH/0L8dIFEVLTcEMD05XSkE5wjb6MJmUgyV3nAnLQb4dgdK9vE4QLJrbCvlhzGlF5j8XjhaWxxJ2SHTFJ7xtgg0uYIqZuyxhtZO3+g1eS12NSQ3JocUkM5Dy9TJEJ87pCizQ0D0GthG2y7uRxO5G/cqb4Mhocw9zt3bB3IOXxJ2R1cj5+I78YfQvXuoTh6IAhdapUiwc8Go36bibOkHoc9hV6Sj02uAyDqlUJumbchBLIcuT/1QP/Cn+Tj0KTM7HvOmNdgA3K3uBNcb7NtD40uhZcUe/LMUvvO2DX4LM4EW6NmSQzcLOegRUohljtpT6Rw+nYX7f1XIGElSf883ob+DYNQf18hSVsxrrkIm5wccXBMOmLHtCZMfinsu6+G7Z4L2CArDOaIT2L7GdibFoHvmwK3E/zQdaoR1p0TEdmqY8bI9b+pQTAb+xtCTqRhvDlQrXYDNCGkQHJsCprN1mUnOvRsrgXuXBRheKfZeCatp9GDe11GfmlBhCiKYenigqk/rySp38fY1r8hgurvQyGRMTtJsYQiWn9tFy+LH3MkrDS/rGeFLoO9MWvmVPTnU6PM+A/N/Q7uWwdy9XyKdtjdH4OWhCHMvi5X85c+ibNVVs8J1u2H48mKm0geDSSMaIOxL9bgUsTnWHGwAeYFqRMfJqVt33kXBp89g2CiiCUxbrCc0wIphUSvBefYSJqQ2K/zvAbYkMv4Ik7GNkOjUeolJz4lOv0V8zGO+IQ+dMHylDgEEkdQnkts0SkVnhnHMJ2/rkHVD1ZmDPr7osHYzoWhxdR6SM/k7suS5Eegi3d17Pw1EPUF+E7GF1wUDUen2c+4Gitz5kTwVASZjcVvISeQxik6GjRhCp+lerwBv5G0aANSdB9i5YycYLKI9qG3dVFmUzkE3i3x4ft4LqwFbFf3Rfq99ejD2DlJlwxc9i0S1vfBg6h+aDnuPAJPPMByB6kjzVcqQlQyeObSuma9kTFTuRDwdEhzdIvzQc61MHIzFuOPSWidkImsWwvRkRjeQ3zDTiDafuzz+TzxYR/iJq586UQhc/IHEJB+D+vZgUiIkzXGUCOF1Z1KuqUsdggajczHnJxrCGM6VpYAr3+Mw6nJKSgiE5xT26loGveETKjSvpUhxs0UvtV2417iCO07ytgJ5xXiX8bCXfoq46BsF8N69z0kjqiFY1OaoXfGTPkEwYzhdAiad4uDj7Q/bDvHEZx1Cws7EqL6EPiGdUCaf9rrDDTUNrBY7IBHXgGZXPj2ymJJJGMk8ufkEOLXCUWbnNB2alPEPSETnQwCQlBMfVGNHYfmCl+2H6EW2H0vEbJHVLDn+mqG6EekoJZthpfXi2g8IjOkttph7j0TrC3MRCDra/MR0a4D9nhLdS6DTP69sK7jVlw95INm/MT1o9Iqn9OfV/EvESsTUBHW2VuSd6Wy1YCZlpRMsR470aln4axhKemzINx5PE3WFiKTAwL5ESoXlrJ1SiTi09WZj7jqcExkIVRwajf2ihKQcOQMLpaWAzVtseQss2DhhK+uX1y/DwSk4x7xF6zVkfSY8VAj2WaHYqJDzf2fygg79/dCZQKvhCuPu5mCHkgSMMJ4KF5EPyLkSWBVOYtPKCyU9FRFpoL8FffODo88FMgMhUsF9U2fIvNpythUYgyC+qIuvys/26H19oE4d2o+uzhjiNraySfRZ40/u5AU7jsV/boG/8q4RyInS+KPAhh/1JXrC6tzG91YX87/kw4lo3+iCKgj8F6ID0N07C3Jipl3EOfCnJDY/5hMsZkJqawwF+LzRSg+sAQB2z/XTnzIyte09xqFiAo3yDKyYjP1Os9N4MQ6WGN8Fa9STKldJSpnvBqMXmXyZduN9tK4I41z2I/UdpqwJC6io8KEraHfrCNnamcVa23S4Gvsgq39GIfeGPNNe2MNH4GRtVDGkAovnA/Owi0OKHUCpcNyKk58dsGTWeXJ6lWY4ujWmFHCkFJ/5Dk1h/8jRcLJfJys8pp3Q0RHbQSFb+O1yntK2PPPFA/FsrXDYcaP6V7iDEy5pBAt0DBW9TFqKVglEYnzZ06g8GYeNvz4bxzrr5je0FzczBb5runJy1Y48eG6qd1OdOkZ967iRPMViVgJwF1DzZThCmxJ6u7EAgzuF4ELA+QkXxvxUV+AyCdRzvbvyogO999PsfHWMUyQZvUUiU91ssOs9QwUD12GtcNlmoHEGVNwSRq9FTB7sIRgxmsV+1WRqSB/pbm4mfMP12Q+TQmbK5UYg6C+aBg4G1EbhOg/6qBJx17wGOyH8Qppwcr5Ts3EJ83XGC5bO2L6LhJtrMH3JXslhi21eGe7egWInj7ykSHwfogPqd1hohhe/yXFjUe/xTL7UxiXzUVmJFdj4NtvErKdNmMfSdm0PsJMxDoiPnxoXZbO4AXArfLiZGkO1hghfEtp5YxXH/Hhx52imfhwjozJpikXsrIrnJDqurfeaiQ+PGFowKT1LLCQMKNohZA7N3dyK9s46b9rbEe7VitPTCRdUwrUY2+w1BbxUSU+PCaHmC3L01FAVro/SlOMss9yEZaQ6qqESPoAP05TXcSH749a2/otVj/xKUFm2HAMFNVE8M6tmNrrCVYx49AQ8VHd1cXJ9gt+ktZHfAjRKX2OWvVIBEKnnejWM3XiAzbCoBd3AxKfZG9vYId6QTxL8pf3lW1frwzxgeQEZpg54ljAaRIlAbYM6IdUzwwcm07Sm1JxKxIfMJEa1vDeqqiaW6CY6iY+gvyVZuLD+bR9sqMxlLDhZVOhMQjqixb7KL+BrONpOJh8CEm7UnCh1mQcLV7NpgUr5zuViY+krBTPa9VDhp/2haJ+y6VPUAQ0I/CeiA+JyPApn4CZ1sgzX4ZjbOicC/1PgsJuD5mD2g8rciCeta8L/mAJgjXH+PnzUYw23sIx2XKOD4eG1Jet8t6a+BRvglNzfzxSS3UpkzI1o1eZLNg030/NlVefhAjmi4tRv3wj2vaNxeijj7CaKZjhmAmXPksnjuURcSzaNFkTYeGjORfnM2mkrzlsjTbi1rEJJB3D/0h+vl2HENSX4vc2xIchUX7VEcvu1xZKfDjSstyWWeUPRg4Tzo8drTxWnpylTz6KR3JgFJAoQywpiByZE6Qc/lbBno2ubCb1IoppNB77Zt2lhZTqAOsjPhIyuzYichshS3kqjH1KKUTwJYXtmiI+vGxz5vPpC33EhxDAEQfhFjsUx/XYyWe3p8JFi55xY1WcaFpwaRR9uBuU+DTH2Yny9IUUdRbrXZ6ydGyliA8T/VjYBGnBzXC2ELDsbI3WqtfJK6W6SLqcREM3k2joE6K7MnJUwXNlOJ+WgyCFtIyaHQjyV5qJD0uSF3wrS+cqY1OJMQjqi2Z7CG78izwFWELsvs0omMS8BHNkl5oPFOQ7lYlPfsQIHHSLxchMzVFwTWeH0UmeIiAUgfdGfMAf0rXh+WCFugzOeNf0laekOON+g4V5IpTPy4Bn8mxmeSonPmTiSvNtBZecacg7EywrkI3o0hlJnmfZol1SCqpee6MHIXb1lipPgTDFjmZeKWitk/jw37msEHlQnSz4MHH+tDyuwJahNoR8uIq6ImV1A6y364Rwy51cIR/TR9apBMBo2wVS96Olupl5jnXkYhIGv0hSe1y9UX5EF3RYSQgiXxhdRs7JaOWSg2l5XAGn9JnOSZ6y4mLVegm9ikTaNHYpwiomjVAWAXsyjkyWnGgjPqEwi2aKTrmxlJBVbJtRhZgjretgDrbrFA7Lnb+RWhiFZwKMsE1HgTdX2LkZfY9Lx0/a5mXmIS1uLiLkldRQ1RbJvy/H3qkCdUx8BMqGiyByKYgHREf52qUy4sQtSXSN6PH9gTswq3YykR3n2I/POomrS+25bzHF1WYzUCdOKlsNmLEpjHB0Y8hwD6IL3z9E5LGWiNRnJ5tbYQlJR2jWM2asKqkFIbhrID5cxMpGnnbImIOmfVei0aJz5GBE7fvvmclx+G9L5EXtrDYwC5+2SPC6RBYxXA2REOLD6exleaSFwaznSYxNjsDAJrU4FZYVy/IarVI7xdU41YbopvRARcZ+XCHqmkIWIQ+wfWAb/JMc6Jh6hRykqK3khy/Y3tz3OC6StLFcxl5I8ZBGm4X4K14PGkbh/sGxnB9gi3odkT5e6tPUsdE9Bk1VekL6ou4BWJmk+KGQL27mUtEz0fg4VwNXOd/JpaLDuzGLmx7EX3+Ph5HEp9TnajjT/LIUME2Ad8BDhCVOgAWvb1/NO4VLIUzOgP4oAvoReH/Eh/SNiX70ebBBVqTIzgWZS+HvI8Jrz2CMrJ0H8deD4JQdiPlXzMmOksnoJV6EladvoPSZEeo2ccCsaBFGWZBUw1J/TEmpgxGebXEt/iBeuC/AskB74jQyyO6mudhz9w4eoy6aNK4LlwWkeJep79T1IzugggZNR1G/mXCrI4b4eV3c+lckMs1sYTt+ORYgFHP33MWdx69gUs8cXaf5wWLLeoXveGCyXxE2rjyNG6XP+GeiIBplQXadncCqyYFIMvGGl81NHMm2Rti2CTxpu4qEaWOx8HoX+LrWwKH4X9EicA0i3PUc4MY68iJ4TbdA7WZOsCoSQXTbFT+vmYpeCmcBsPhOSUGdEZ5oey0eB1+4Y8GyQNgT75pBdrtxYwLBtjHquiwgO6v0AEWKWWN8+yH0QR84fPYIDsv3wueLnfD1WYnTN0rxzKQezLtOQ5RoFCzYiXMtzPx/QJ1vrOBU7ResPvIN5oiWwUNhv77kagKmjV2I61184VrjEOJ/bYHANRFw13MQYknmOsycs5ucGD0N7R+mIOfhK4jX7MMDq05o67mIHQvbtvd8/G7tjX5NClDw2A3zFrlrOaivCDt9fRT0rTE8JvqhaIvK2NZ1xvlp3piabYXgOT1w92AReniZYoVfAv5s93/419ZwOH2djhl9LqKvfzF2nW0NV7MiiHZdgdPCNSQ1RnbYFWnBjOxqYdJoQxIbYHCrJ6gfsBvhTl/rsZMl2OxjpV3PzpAdQnP34C4naDT2UMBGC+5FO33hw+uyEfvORPgVbeGxMUE9866YFkVs8cVa9CF6k+WwBc+0ntTI8PT6SOi6BHXio/G0vzcGkgmz4D8RONBqHVKX9yF2q4g9376/Bbas4fr9itcrP4stWK+gsx6LiG13KsDifvaIqkmOc7Asx4X0PBQ/vo/HzYnNHV6Omlules7Zrudyxh+Q84sSpsF7/u+w9u6HJgUFeOw2D4tYuyMEYXJPTIy7AYctz7QfQMk5MKybOQe7yYnT09o/RErOQ7wSr8G+B1bo1NYTi8gGCwdGplr9FdPIFWwcthYm4yyQtf8V7Ow+w3FRCr6YIsIyD+bYC1W9lPpBXWPQ5uz09UUT8bFDvwxzOH9jC8eBDXAnMQn33ZdhmdRHCfadnJ9hZUbcTElmGIYPSUSDwa3wpH4AdoeT3Xc8pkv9/ZH0lzsG93iKgpvNMD50OuuzcDEKg4evAGbEIYnoPP1RBIQg8F6Jj5AO0mcEIlDBFJXAVg37GEt8VGt8DPsJ2toHgIBSylNzf8q5YjDuvCtmm/p/X/BHIbxt/5loSU/kzpNHDNkWydEN2zxaYH6741wRfyV+ZTFDMMs0kU3n0B9FgCLw8SJAic/HKzvlnlPi83eR5Ec/jrJkX8x6EQmRlqMHqnaATLr8nzBOuUrObFJM73DbwQPqH2aPTaj4j5zVNGQl2apO7i4TfK5Pxb9C36AIUASqHgFKfKoe4yr/wvUjS/HvOYsRdY5cdO0zB4v/NRvO/6jyz1boA2X5MVgZFIYFRwph6RyKsOXTMNqQt25WqDf04SpDoCwNAV4FCEjgD6Sssg9pb7g8dx1Ge8egYdAKTO3dBLWe38HRVTOwGTOxY6W2tKbujpbE+CKk9kKIdNXZvYex0k9SBCgCFUeAEp+KY0bfoAhQBD4CBJgTgkue/kl6Wg21GzSBjvNKP4LR0C5SBCgChkKAEh9DIUnboQhQBCgCFAGKAEXgg0eAEp8PXkS0gxQBigBFgCJAEaAIGAoBSnwMhSRthyJAEaAIUAQoAhSBDx4BSnw+eBHRDlIEKAIUAYoARYAiYCgEKPExFJK0HYoARYAiQBGgCFAEPngEKPH54EVEO0gRoAhQBCgCFAGKgKEQoMTHUEjSdigCFAGKAEWAIkAR+OARoMTngxcR7SBFgCJAEaAIUAQoAoZCgBIfQyFJ26EIUAQoAhQBigBF4INHgBKfD15EtIMUAYoARYAiQBGgCBgKgf8H7rBHddaEnf0AAAAASUVORK5CYII=;" vertex="1" parent="1">
          <mxGeometry x="20" y="40" width="574" height="56" as="geometry" />
        </mxCell>
      </root>
    </mxGraphModel>
  </diagram>
</mxfile>
